# xmcd
#
# Track frame offsets:
#	150
#	28378
#	38196
#	53950
#	88322
#	109441
#	121763
#	147064
#	169035
#	213021
#	237165
#	248397
#	270072
#
# Disc length: 3843 seconds
#
# Revision: 1
# Processed by: cddbd v1.5.1PL0 Copyright (c) Steve Scherf et al.
# Submitted via: audiograbber 1.83.01
#
DISCID=a90f010d
DTITLE=Dead Can Dance - Unreleased Tracks Vol. 4
DYEAR=1900
DGENRE=
TTITLE0=Where Are You Going ?
TTITLE1=Forest Of Souls
TTITLE2=Emmadelia
TTITLE3=Bolero
TTITLE4=Chase The Blues
TTITLE5=Redark
TTITLE6=Tanamakoa
TTITLE7=Can You Feel It
TTITLE8=Rembetika
TTITLE9=No Reason At All
TTITLE10=Serpent´s Army
TTITLE11=Everybodys Been Burned
TTITLE12=Lament (1993)
EXTD=
EXTT0=
EXTT1=
EXTT2=
EXTT3=
EXTT4=
EXTT5=
EXTT6=
EXTT7=
EXTT8=
EXTT9=
EXTT10=
EXTT11=
EXTT12=
PLAYORDER=
